<?xml version="1.0" standalone="no"?>
<!DOCTYPE svg PUBLIC "-//W3C//DTD SVG 20010904//EN"
 "http://www.w3.org/TR/2001/REC-SVG-20010904/DTD/svg10.dtd">
<svg version="1.0" xmlns="http://www.w3.org/2000/svg"
 width="300.000000pt" height="300.000000pt" viewBox="0 0 300.000000 300.000000"
 preserveAspectRatio="xMidYMid meet">
<metadata>
Created by potrace 1.10, written by Peter Selinger 2001-2011
</metadata>
<g transform="translate(0.000000,300.000000) scale(0.100000,-0.100000)"
fill="#000000" stroke="none">
<path d="M1170 2860 c-356 -77 -652 -304 -815 -628 -143 -285 -159 -636 -41
-935 65 -164 144 -284 204 -307 8 -4 -28 -44 -101 -113 -63 -59 -117 -116
-120 -127 -3 -11 -3 -20 -1 -20 7 0 138 114 329 285 296 266 569 509 587 523
15 12 40 0 194 -92 114 -68 181 -103 188 -97 6 5 157 120 336 256 179 136 326
250 328 255 1 4 -18 33 -44 64 -25 32 -44 59 -42 61 4 4 533 75 556 75 5 0
-28 -87 -73 -192 -45 -106 -95 -226 -111 -266 l-30 -72 -48 65 c-43 59 -50 65
-67 53 -16 -12 -487 -371 -711 -543 l-87 -66 -186 110 c-103 61 -188 111 -190
111 -12 0 -869 -505 -905 -533 l-25 -19 35 7 c34 7 79 29 229 113 41 23 75 42
77 42 2 0 4 -7 4 -15 0 -54 225 -193 402 -250 148 -47 242 -59 412 -52 215 9
402 68 576 181 59 39 188 146 220 182 117 135 186 245 240 382 34 89 40 129
24 168 -17 41 -17 44 -1 44 23 0 43 31 82 120 20 47 43 99 50 115 39 87 115
284 115 298 0 8 -11 24 -24 34 -23 19 -29 19 -140 5 -115 -14 -140 -12 -119 9
14 14 1 63 -36 138 -76 155 -198 303 -339 410 -26 20 -52 41 -59 47 -26 25
-212 113 -289 138 -179 58 -413 72 -584 36z m490 -40 c267 -66 520 -240 671
-462 39 -57 129 -229 129 -246 0 -7 -134 -35 -135 -28 0 0 -20 40 -44 88 -119
240 -365 438 -631 510 -74 20 -108 23 -260 22 -162 0 -182 -2 -265 -28 -169
-51 -290 -122 -418 -245 -133 -127 -228 -290 -279 -479 -31 -116 -31 -343 1
-467 26 -103 94 -254 147 -328 l36 -50 -50 -50 -50 -50 -57 86 c-108 166 -168
338 -184 524 -36 414 146 797 490 1036 122 85 288 153 444 182 113 21 341 13
455 -15z m-66 -155 c95 -17 334 -124 344 -154 2 -6 0 -11 -5 -10 -4 1 -81 1
-171 0 -158 -1 -164 -2 -187 -25 l-24 -24 0 -475 c0 -261 3 -487 8 -503 10
-38 35 -53 62 -36 38 24 31 4 -7 -22 l-38 -26 -56 32 c-30 17 -65 39 -77 48
l-23 18 26 0 c14 -1 31 5 37 11 9 9 13 101 15 320 3 303 3 307 -19 327 -18 17
-39 19 -172 22 -183 4 -210 0 -225 -34 -8 -17 -12 -110 -12 -287 0 -221 2
-266 16 -285 21 -30 39 -28 88 13 24 19 46 35 50 35 4 0 24 -11 44 -25 20 -14
33 -25 29 -25 -4 0 -19 7 -32 16 -15 10 -32 13 -47 8 -18 -5 -118 -89 -216
-181 -22 -21 -27 -15 -7 7 16 18 19 43 22 196 5 242 22 224 -209 224 -155 0
-184 -2 -200 -17 -17 -15 -18 -37 -18 -289 0 -150 -3 -279 -6 -288 -19 -49
-112 166 -139 323 -16 94 -12 263 10 366 19 93 81 240 136 326 42 64 220 249
240 249 7 0 22 9 33 19 55 51 226 123 351 147 71 13 299 13 379 -1z m525 -309
c50 -53 105 -135 151 -226 16 -32 35 -62 41 -66 17 -10 -10 -24 -51 -24 -40 0
-99 -27 -113 -51 -8 -13 -3 -28 21 -65 18 -26 32 -51 32 -55 0 -13 -229 -189
-245 -189 -5 0 0 9 9 19 16 17 17 53 17 391 -1 205 2 377 5 382 6 10 48 -26
133 -116z m-169 -259 l0 -373 -52 -39 c-29 -22 -112 -86 -185 -142 l-133 -102
0 514 0 515 185 0 185 0 0 -373z m-480 -279 l0 -316 -116 70 c-64 38 -123 72
-131 75 -9 4 -35 -15 -69 -48 l-54 -53 0 294 0 295 185 0 185 0 0 -317z m-480
-192 l0 -174 -132 -118 c-73 -64 -157 -140 -185 -168 l-53 -50 0 342 0 342
185 0 185 0 0 -174z m1500 -199 c0 -26 -40 -132 -82 -216 -74 -149 -198 -297
-343 -406 -83 -64 -262 -149 -375 -181 -128 -35 -361 -45 -493 -20 -90 17
-232 63 -302 98 -47 24 -225 141 -225 148 0 3 29 21 63 40 l63 36 39 -29 c22
-16 74 -46 115 -67 504 -254 1109 -42 1351 475 22 46 49 119 59 162 11 42 25
80 32 84 12 8 98 -101 98 -124z m-160 95 c0 -41 -33 -140 -76 -225 -102 -204
-252 -351 -457 -447 -228 -107 -498 -116 -738 -26 -99 37 -249 123 -249 143 0
7 15 20 33 29 17 9 107 61 198 115 91 55 173 99 182 99 9 0 58 -25 109 -56
159 -97 245 -144 263 -144 9 0 26 5 38 12 25 13 229 167 596 450 47 36 89 67
94 67 4 1 7 -7 7 -17z"/>
<path d="M1005 394 c-40 -21 -46 -22 -60 -8 -22 23 -89 29 -136 14 -30 -10
-42 -11 -51 -2 -19 19 -97 14 -138 -9 l-38 -22 -30 22 c-59 41 -153 17 -187
-49 -8 -16 -17 -30 -18 -30 -1 0 -4 12 -5 27 -2 28 -37 73 -57 73 -6 0 -21
-10 -33 -23 -20 -21 -22 -34 -22 -125 0 -89 3 -105 20 -122 23 -23 84 -27 125
-8 21 9 31 9 46 0 33 -21 105 -15 136 12 l27 24 32 -25 c40 -30 77 -34 127
-15 32 12 42 13 63 1 19 -10 30 -10 44 -2 13 9 26 9 48 1 24 -9 35 -9 54 4 21
14 27 14 49 2 13 -7 45 -13 71 -14 40 0 51 5 80 35 18 20 33 40 33 44 0 24 15
18 41 -16 15 -21 35 -43 44 -50 19 -16 95 -16 119 -1 15 9 25 9 46 0 36 -16
90 -15 125 3 26 13 32 13 60 -3 l31 -17 29 33 c16 17 32 32 35 32 3 0 18 -14
34 -32 27 -30 30 -31 60 -19 22 10 35 10 44 3 17 -14 285 -10 311 5 15 8 29 6
58 -7 30 -13 49 -15 76 -9 20 4 65 6 99 3 43 -3 71 -1 90 10 23 11 33 12 51 2
13 -7 62 -13 109 -14 77 -2 88 0 104 20 26 29 24 39 -10 72 -25 24 -29 37 -33
91 -4 68 -25 105 -59 105 -20 0 -59 -45 -59 -69 0 -10 -12 -2 -31 22 -17 20
-36 37 -44 37 -7 0 -27 -16 -44 -35 -24 -28 -31 -32 -31 -17 0 34 -38 57 -99
60 -93 4 -102 3 -135 -18 -32 -19 -32 -19 -61 0 -33 22 -104 27 -137 9 -14 -8
-23 -8 -31 0 -14 14 -114 14 -123 0 -3 -6 -19 -8 -38 -5 -26 5 -38 1 -65 -24
-35 -33 -37 -32 -83 13 -21 20 -32 21 -59 7 -14 -8 -27 -7 -48 5 -36 18 -90
19 -126 3 -19 -9 -30 -8 -48 1 -12 6 -32 13 -44 15 -34 7 -98 -31 -119 -69
-10 -19 -22 -35 -26 -35 -4 0 -15 16 -24 35 -30 65 -102 85 -169 49z m-700
-112 l0 -92 33 0 c25 0 32 -4 32 -20 0 -18 -7 -20 -55 -20 l-55 0 0 108 c0 60
3 112 7 116 4 4 14 5 23 4 12 -3 15 -20 15 -96z m236 69 c25 -26 29 -37 29
-86 0 -49 -4 -60 -29 -86 -37 -36 -79 -38 -118 -5 -25 22 -28 30 -28 91 0 61
3 69 28 91 39 33 81 31 118 -5z m199 19 c34 -18 13 -41 -30 -34 -32 5 -40 3
-54 -17 -19 -27 -21 -68 -4 -104 14 -31 62 -35 78 -6 14 28 13 31 -15 31 -17
0 -25 5 -25 18 0 14 7 17 40 14 39 -4 40 -5 40 -43 0 -74 -77 -106 -135 -56
-33 27 -45 100 -25 147 21 50 85 74 130 50z m193 -22 c9 -11 17 -29 17 -39 0
-28 -22 -69 -37 -69 -19 0 -16 -8 18 -51 l31 -39 -29 0 c-22 0 -34 9 -55 43
l-28 42 0 -42 c0 -36 -3 -43 -20 -43 -19 0 -20 7 -20 114 l0 113 53 -4 c36 -3
57 -11 70 -25z m192 8 c30 -30 41 -87 26 -137 -22 -72 -90 -92 -142 -40 -25
26 -29 37 -29 86 0 49 4 60 29 86 37 37 82 39 116 5z m245 14 c30 -16 14 -40
-21 -33 -43 8 -59 -11 -59 -72 0 -61 16 -80 59 -72 21 5 31 2 35 -10 8 -20
-10 -33 -47 -33 -59 0 -97 47 -97 117 1 81 69 135 130 103z m163 -1 c58 -26
70 -143 21 -193 -54 -53 -135 -22 -150 59 -18 97 52 169 129 134z m143 -49
l38 -50 26 32 c14 18 35 44 47 58 l22 25 1 -118 c0 -116 0 -118 -22 -115 -20
3 -22 8 -20 68 l2 65 -28 -34 -29 -34 -26 34 -27 34 0 -67 c0 -61 -2 -68 -20
-68 -19 0 -20 7 -20 116 0 64 4 113 9 110 5 -3 26 -28 47 -56z m294 38 c0 -14
-8 -18 -35 -18 -31 0 -35 -3 -35 -25 0 -21 5 -25 30 -25 24 0 30 -4 30 -21 0
-19 -4 -21 -30 -16 -29 6 -30 5 -30 -28 0 -34 1 -35 40 -35 33 0 40 -3 40 -20
0 -18 -7 -20 -60 -20 l-60 0 0 113 0 112 55 1 c47 0 55 -3 55 -18z m148 6 c45
-9 51 -89 9 -119 -20 -14 -20 -14 6 -49 33 -43 33 -46 2 -46 -18 0 -30 10 -47
40 -13 22 -26 40 -30 40 -3 0 -4 -18 -1 -41 5 -38 4 -41 -16 -37 -22 3 -23 7
-22 111 0 59 0 109 1 111 0 5 53 -1 98 -10z m197 3 c26 -20 10 -38 -27 -30
-40 8 -58 -15 -58 -72 0 -57 18 -80 58 -72 23 5 32 2 36 -10 8 -21 -10 -33
-52 -33 -66 0 -107 80 -83 161 17 58 83 87 126 56z m85 -102 c0 -108 -1 -115
-20 -115 -19 0 -20 7 -20 115 0 108 1 115 20 115 19 0 20 -7 20 -115z m160 10
c23 -55 44 -106 47 -112 9 -22 -35 -15 -47 7 -15 28 -80 28 -87 0 -4 -13 -14
-20 -30 -20 -14 0 -23 4 -21 8 2 4 23 56 47 115 24 59 45 107 46 105 2 -2 22
-48 45 -103z m110 10 l0 -95 35 0 c28 0 35 -4 35 -20 0 -18 -7 -20 -55 -20
l-55 0 0 115 c0 108 1 115 20 115 19 0 20 -7 20 -95z m-352 -28 c-2 -14 -10
-22 -23 -22 -21 0 -31 25 -21 51 9 24 48 -2 44 -29z m-958 8 c0 -16 -6 -25
-15 -25 -9 0 -15 9 -15 25 0 16 6 25 15 25 9 0 15 -9 15 -25z"/>
<path d="M442 315 c-15 -32 -15 -53 -1 -94 14 -41 60 -45 77 -6 15 32 15 80 2
106 -16 29 -64 25 -78 -6z"/>
<path d="M850 295 c0 -49 15 -58 43 -27 29 32 15 72 -25 72 -15 0 -18 -8 -18
-45z"/>
<path d="M1030 321 c-5 -11 -10 -36 -10 -56 0 -48 16 -75 44 -75 33 0 49 24
49 75 0 24 -5 51 -13 59 -17 22 -57 20 -70 -3z"/>
<path d="M1462 328 c-7 -7 -12 -35 -12 -63 0 -56 12 -75 47 -75 27 0 43 27 43
75 0 20 -5 45 -10 56 -12 21 -50 25 -68 7z"/>
<path d="M2060 296 c0 -49 5 -54 34 -33 26 19 18 71 -11 75 -21 3 -23 -1 -23
-42z"/>
<path d="M2501 260 c-14 -42 -15 -40 15 -40 22 0 24 3 18 23 -14 47 -21 51
-33 17z"/>
</g>
</svg>
